<?xml version="1.0" encoding="UTF-8"?>
<svg width="125px" height="45px" viewBox="0 0 125 45" version="1.1" xmlns="http://www.w3.org/2000/svg" xmlns:xlink="http://www.w3.org/1999/xlink">
    <!-- Generator: Sketch 58 (84663) - https://sketch.com -->
    <title>plane</title>
    <desc>Created with Sketch.</desc>
    <g id="plane" stroke="none" stroke-width="1" fill="none" fill-rule="evenodd">
        <g id="np_paper-plane_879758_000000" transform="translate(57.500000, 21.000000) rotate(16.000000) translate(-57.500000, -21.000000) translate(-4.000000, -10.000000)" fill="#828282" fill-rule="nonzero">
            <path d="M20.8869297,59.2289525 C20.8869297,59.386134 20.8869297,59.5372797 21.0445399,59.6944612 C21.0445399,59.8516428 21.2021501,59.8516428 21.2021501,60.0027884 L21.3597603,60.15997 L21.5173705,60.3171515 L21.6749807,60.3171515 L21.8325909,60.3171515 C21.9902011,60.3171515 22.1417589,60.4743331 22.2993691,60.4743331 C22.4569792,60.4743331 22.6085371,60.4743331 22.917705,60.3171515 L35.6419808,52.8870885 L39.0549025,60.7826912 C39.2125127,61.0910184 39.5216807,61.3993456 39.8308487,61.3993456 L40.1400167,61.3993456 C40.4491847,61.3993456 40.6067949,61.3993456 40.9159629,61.242164 L122.377896,2.43063392 L122.535507,2.27345237 L122.693117,2.11627082 L122.693117,1.95908926 C122.693117,1.80190771 122.693117,1.80190771 122.850727,1.65076208 L122.850727,1.49358053 L122.850727,1.18525334 L122.850727,1.02807179 L122.850727,0.870890236 L122.850727,0.713708683 L122.850727,0.556527131 L122.693117,0.556527131 L122.535507,0.399345578 L122.377896,0.399345578 L122.220286,0.399345578 L122.062676,0.399345578 L121.905066,0.399345578 L121.595898,0.399345578 L121.438288,0.399345578 L1.78428326,26.7097669 C1.16594727,26.8669485 0.850726898,27.3264213 0.850726898,27.9491116 C0.850726898,28.565766 1.46906289,29.0312747 2.09345126,29.0312747 L21.0249861,29.3396019 L21.037111,59.2282406 L20.8869297,59.2289525 Z M27.0944992,29.9748593 C26.936889,30.1320408 26.7853312,30.1320408 26.7853312,30.1320408 L26.627721,30.2892224 L26.4701108,30.4464039 L26.4701108,30.6035855 L26.4701108,30.760767 L23.5239984,46.395348 L23.5239984,28.8927271 L69.4631158,16.6685958 L27.0944992,29.9748593 Z M23.8330422,56.9074447 L28.02191,35.0821764 L34.6962887,50.5588948 L23.8330422,56.9074447 Z M40.4367385,58.6063241 L29.1066828,31.8300535 L114.927882,4.74579623 L40.4367385,58.6063241 Z M69.7706078,14.038018 L45.5579833,20.5370016 L21.9707714,26.8849324 L12.3502803,26.7277509 L69.7706078,14.038018 Z" id="Shape"></path>
        </g>
    </g>
</svg>